<svg xmlns="http://www.w3.org/2000/svg" viewBox="0 0 1280 420" width="1280" height="420" font-family="ui-monospace,'IBM Plex Mono',SFMono-Regular,Menlo,Consolas,monospace" role="img" aria-label="TERRABYTE — technologist, builder, jack of all trades">
  <defs>
    <style>
  @keyframes blink { 0%,46%{opacity:1} 47%,100%{opacity:0} }
  @keyframes flick { 0%,100%{opacity:1} 92%{opacity:1} 94%{opacity:.8} 96%{opacity:1} 97%{opacity:.88} 98%{opacity:1} }
  @keyframes glitch { 0%,89%,100%{transform:translate(0,0)} 90%{transform:translate(-2px,0)} 91%{transform:translate(2px,0)} 92%{transform:translate(-1px,0)} 93%{transform:translate(0,0)} }
  @keyframes ghostR { 0%,89%,100%{opacity:0} 90.5%,92%{opacity:.45} }
  @keyframes ghostC { 0%,89%,100%{opacity:0} 90.5%,92%{opacity:.4} }
  @keyframes sweepY { 0%{transform:translateY(-30px);opacity:0} 8%{opacity:.9} 92%{opacity:.9} 100%{transform:translateY(420px);opacity:0} }
  @keyframes pulse { 0%,100%{opacity:.85} 50%{opacity:1} }
  @keyframes drawline { from{stroke-dashoffset:300} to{stroke-dashoffset:0} }
  @keyframes dash { to { stroke-dashoffset: -16 } }
  .screen{animation:flick 7s steps(1) infinite}
  .wm{animation:glitch 6.5s ease-in-out infinite}
  .wm-r{animation:ghostR 6.5s ease-in-out infinite}
  .wm-c{animation:ghostC 6.5s ease-in-out infinite}
  .sweep{animation:sweepY 5.5s linear infinite}
  .core{animation:pulse 3.2s ease-in-out infinite}
  .rule{stroke-dasharray:300;animation:drawline 1.6s ease-out forwards, pulse 3.2s ease-in-out 1.6s infinite}
  .march{stroke-dasharray:6 4;animation:dash 1.4s linear infinite}
  @media (prefers-reduced-motion: reduce){
    .screen,.wm,.wm-r,.wm-c,.sweep,.core,.rule,.march{animation:none}
    .wm-r,.wm-c,.sweep{opacity:0}.rule{stroke-dashoffset:0}
  }
</style>
    <filter id="bloom" x="-70%" y="-70%" width="240%" height="240%" color-interpolation-filters="sRGB">
      <feGaussianBlur in="SourceGraphic" stdDeviation="1.1" result="g1"/><feGaussianBlur in="SourceGraphic" stdDeviation="4" result="g2"/><feGaussianBlur in="SourceGraphic" stdDeviation="12" result="g3"/>
      <feMerge><feMergeNode in="g3"/><feMergeNode in="g2"/><feMergeNode in="g1"/><feMergeNode in="SourceGraphic"/></feMerge></filter>
    <filter id="soft" x="-60%" y="-60%" width="220%" height="220%" color-interpolation-filters="sRGB"><feGaussianBlur in="SourceGraphic" stdDeviation="2.4" result="b"/><feMerge><feMergeNode in="b"/><feMergeNode in="SourceGraphic"/></feMerge></filter>
    <radialGradient id="vig" cx="50%" cy="42%" r="75%"><stop offset="0" stop-color="#000" stop-opacity="0"/><stop offset="0.7" stop-color="#000" stop-opacity="0"/><stop offset="1" stop-color="#000" stop-opacity="0.7"/></radialGradient>
    <radialGradient id="halo" cx="50%" cy="50%" r="50%"><stop offset="0" stop-color="#02EEAA" stop-opacity="0.16"/><stop offset="0.6" stop-color="#02EEAA" stop-opacity="0.04"/><stop offset="1" stop-color="#02EEAA" stop-opacity="0"/></radialGradient>
    <linearGradient id="rule" x1="0" y1="0" x2="1" y2="0"><stop offset="0" stop-color="#02EEAA" stop-opacity="0"/><stop offset="0.5" stop-color="#02EEAA" stop-opacity="1"/><stop offset="1" stop-color="#02EEAA" stop-opacity="0"/></linearGradient>
    <linearGradient id="sweepg" x1="0" y1="0" x2="0" y2="1"><stop offset="0" stop-color="#02EEAA" stop-opacity="0"/><stop offset="0.5" stop-color="#02EEAA" stop-opacity="0.5"/><stop offset="1" stop-color="#02EEAA" stop-opacity="0"/></linearGradient>
    <pattern id="grid" width="36" height="36" patternUnits="userSpaceOnUse"><path d="M36 0H0V36" fill="none" stroke="#02EEAA" stroke-width="1" stroke-opacity="0.05"/></pattern>
    <pattern id="paper" width="20" height="20" patternUnits="userSpaceOnUse"><path d="M20 0H0V20" fill="none" stroke="#86a8bf" stroke-width="0.6" stroke-opacity="0.5"/></pattern>
    <pattern id="paper2" width="100" height="100" patternUnits="userSpaceOnUse"><path d="M100 0H0V100" fill="none" stroke="#1c5475" stroke-width="0.8" stroke-opacity="0.25"/></pattern>
    <pattern id="scan" width="3" height="3" patternUnits="userSpaceOnUse"><rect width="3" height="1" fill="#000" fill-opacity="0.34"/></pattern>
    <radialGradient id="spot" cx="50%" cy="45%" r="62%"><stop offset="0" stop-color="#fff"/><stop offset="1" stop-color="#fff" stop-opacity="0"/></radialGradient>
    <mask id="spotmask"><rect width="1280" height="420" fill="url(#spot)"/></mask>
  </defs>
  <rect width="1280" height="420" fill="#000000"/>
    <rect width="1280" height="420" fill="url(#grid)" mask="url(#spotmask)"/>
    <g><circle cx="954.1" cy="272.2" r="1.37" fill="#7CFFCB" opacity="0.53"><animate attributeName="opacity" values="0.53;0.1;0.53" dur="3.3s" begin="-0.5s" repeatCount="indefinite"/></circle>
      <circle cx="835.7" cy="143.2" r="1.53" fill="#7CFFCB" opacity="0.45"><animate attributeName="opacity" values="0.45;0.08;0.45" dur="4.9s" begin="-3.7s" repeatCount="indefinite"/></circle>
      <circle cx="1213.7" cy="95.1" r="1.06" fill="#7CFFCB" opacity="0.4"><animate attributeName="opacity" values="0.4;0.07;0.4" dur="5.0s" begin="-2.3s" repeatCount="indefinite"/></circle>
      <circle cx="736.7" cy="347.5" r="1.1" fill="#7CFFCB" opacity="0.27"><animate attributeName="opacity" values="0.27;0.05;0.27" dur="3.3s" begin="-2.8s" repeatCount="indefinite"/></circle>
      <circle cx="740.4" cy="248.6" r="1.19" fill="#7CFFCB" opacity="0.24"><animate attributeName="opacity" values="0.24;0.04;0.24" dur="4.3s" begin="-2.5s" repeatCount="indefinite"/></circle>
      <circle cx="555.6" cy="281.9" r="0.79" fill="#7CFFCB" opacity="0.43"><animate attributeName="opacity" values="0.43;0.08;0.43" dur="3.4s" begin="-2.6s" repeatCount="indefinite"/></circle>
      <circle cx="498.7" cy="31.3" r="0.58" fill="#7CFFCB" opacity="0.15"><animate attributeName="opacity" values="0.15;0.03;0.15" dur="5.9s" begin="-2.1s" repeatCount="indefinite"/></circle>
      <circle cx="1233.3" cy="279.9" r="0.92" fill="#7CFFCB" opacity="0.17"><animate attributeName="opacity" values="0.17;0.03;0.17" dur="5.3s" begin="-2.9s" repeatCount="indefinite"/></circle>
      <circle cx="59.2" cy="340.4" r="1.45" fill="#7CFFCB" opacity="0.29"><animate attributeName="opacity" values="0.29;0.05;0.29" dur="3.0s" begin="-2.6s" repeatCount="indefinite"/></circle>
      <circle cx="847.7" cy="188.6" r="0.69" fill="#7CFFCB" opacity="0.29"><animate attributeName="opacity" values="0.29;0.05;0.29" dur="4.9s" begin="-2.3s" repeatCount="indefinite"/></circle>
      <circle cx="1260.6" cy="20.0" r="0.85" fill="#7CFFCB" opacity="0.46"><animate attributeName="opacity" values="0.46;0.08;0.46" dur="2.7s" begin="-0.0s" repeatCount="indefinite"/></circle>
      <circle cx="974.2" cy="37.7" r="0.64" fill="#7CFFCB" opacity="0.39"><animate attributeName="opacity" values="0.39;0.07;0.39" dur="4.9s" begin="-1.2s" repeatCount="indefinite"/></circle>
      <circle cx="539.1" cy="53.8" r="1.39" fill="#7CFFCB" opacity="0.19"><animate attributeName="opacity" values="0.19;0.03;0.19" dur="3.9s" begin="-0.4s" repeatCount="indefinite"/></circle>
      <circle cx="713.8" cy="311.8" r="1.13" fill="#7CFFCB" opacity="0.45"><animate attributeName="opacity" values="0.45;0.08;0.45" dur="4.4s" begin="-1.3s" repeatCount="indefinite"/></circle>
      <circle cx="791.6" cy="91.9" r="0.69" fill="#7CFFCB" opacity="0.5"><animate attributeName="opacity" values="0.5;0.09;0.5" dur="3.7s" begin="-2.1s" repeatCount="indefinite"/></circle>
      <circle cx="918.3" cy="391.6" r="0.9" fill="#7CFFCB" opacity="0.13"><animate attributeName="opacity" values="0.13;0.02;0.13" dur="5.8s" begin="-4.1s" repeatCount="indefinite"/></circle>
      <circle cx="788.8" cy="42.7" r="0.82" fill="#7CFFCB" opacity="0.17"><animate attributeName="opacity" values="0.17;0.03;0.17" dur="5.1s" begin="-1.1s" repeatCount="indefinite"/></circle>
      <circle cx="672.4" cy="319.8" r="1.37" fill="#7CFFCB" opacity="0.13"><animate attributeName="opacity" values="0.13;0.02;0.13" dur="4.5s" begin="-4.1s" repeatCount="indefinite"/></circle>
      <circle cx="644.1" cy="306.8" r="1.01" fill="#7CFFCB" opacity="0.48"><animate attributeName="opacity" values="0.48;0.09;0.48" dur="5.9s" begin="-1.9s" repeatCount="indefinite"/></circle>
      <circle cx="1106.3" cy="62.8" r="0.82" fill="#7CFFCB" opacity="0.28"><animate attributeName="opacity" values="0.28;0.05;0.28" dur="3.3s" begin="-3.2s" repeatCount="indefinite"/></circle>
      <circle cx="1236.7" cy="312.6" r="1.38" fill="#7CFFCB" opacity="0.26"><animate attributeName="opacity" values="0.26;0.05;0.26" dur="4.6s" begin="-2.8s" repeatCount="indefinite"/></circle>
      <circle cx="146.8" cy="140.8" r="1.44" fill="#7CFFCB" opacity="0.39"><animate attributeName="opacity" values="0.39;0.07;0.39" dur="3.1s" begin="-2.1s" repeatCount="indefinite"/></circle>
      <circle cx="1135.3" cy="104.4" r="0.55" fill="#7CFFCB" opacity="0.27"><animate attributeName="opacity" values="0.27;0.05;0.27" dur="4.0s" begin="-0.2s" repeatCount="indefinite"/></circle>
      <circle cx="62.8" cy="79.7" r="1.43" fill="#7CFFCB" opacity="0.18"><animate attributeName="opacity" values="0.18;0.03;0.18" dur="4.7s" begin="-3.9s" repeatCount="indefinite"/></circle>
      <circle cx="477.8" cy="153.8" r="1.15" fill="#7CFFCB" opacity="0.53"><animate attributeName="opacity" values="0.53;0.1;0.53" dur="4.3s" begin="-3.7s" repeatCount="indefinite"/></circle>
      <circle cx="142.8" cy="189.4" r="0.98" fill="#7CFFCB" opacity="0.48"><animate attributeName="opacity" values="0.48;0.09;0.48" dur="3.2s" begin="-2.8s" repeatCount="indefinite"/></circle>
      <circle cx="11.1" cy="54.8" r="0.69" fill="#7CFFCB" opacity="0.53"><animate attributeName="opacity" values="0.53;0.1;0.53" dur="2.6s" begin="-0.2s" repeatCount="indefinite"/></circle>
      <circle cx="515.1" cy="62.0" r="1.12" fill="#7CFFCB" opacity="0.32"><animate attributeName="opacity" values="0.32;0.06;0.32" dur="5.0s" begin="-1.7s" repeatCount="indefinite"/></circle>
      <circle cx="1170.8" cy="288.5" r="0.57" fill="#7CFFCB" opacity="0.53"><animate attributeName="opacity" values="0.53;0.1;0.53" dur="3.5s" begin="-1.4s" repeatCount="indefinite"/></circle>
      <circle cx="817.0" cy="109.0" r="1.55" fill="#7CFFCB" opacity="0.43"><animate attributeName="opacity" values="0.43;0.08;0.43" dur="5.5s" begin="-2.7s" repeatCount="indefinite"/></circle>
      <circle cx="1271.7" cy="367.2" r="1.15" fill="#7CFFCB" opacity="0.37"><animate attributeName="opacity" values="0.37;0.07;0.37" dur="2.7s" begin="-1.2s" repeatCount="indefinite"/></circle>
      <circle cx="133.4" cy="74.3" r="1.29" fill="#7CFFCB" opacity="0.19"><animate attributeName="opacity" values="0.19;0.03;0.19" dur="5.8s" begin="-1.0s" repeatCount="indefinite"/></circle>
      <circle cx="145.4" cy="117.7" r="1.22" fill="#7CFFCB" opacity="0.23"><animate attributeName="opacity" values="0.23;0.04;0.23" dur="4.6s" begin="-0.5s" repeatCount="indefinite"/></circle>
      <circle cx="742.2" cy="180.5" r="1.46" fill="#7CFFCB" opacity="0.24"><animate attributeName="opacity" values="0.24;0.04;0.24" dur="5.9s" begin="-2.4s" repeatCount="indefinite"/></circle>
      <circle cx="447.9" cy="104.9" r="0.74" fill="#7CFFCB" opacity="0.48"><animate attributeName="opacity" values="0.48;0.09;0.48" dur="5.7s" begin="-1.8s" repeatCount="indefinite"/></circle>
      <circle cx="688.8" cy="123.4" r="1.18" fill="#7CFFCB" opacity="0.39"><animate attributeName="opacity" values="0.39;0.07;0.39" dur="3.9s" begin="-2.2s" repeatCount="indefinite"/></circle>
      <circle cx="1053.7" cy="15.8" r="1.36" fill="#7CFFCB" opacity="0.14"><animate attributeName="opacity" values="0.14;0.03;0.14" dur="2.8s" begin="-1.5s" repeatCount="indefinite"/></circle>
      <circle cx="1243.8" cy="142.2" r="0.54" fill="#7CFFCB" opacity="0.26"><animate attributeName="opacity" values="0.26;0.05;0.26" dur="4.8s" begin="-0.3s" repeatCount="indefinite"/></circle>
      <circle cx="1264.3" cy="247.4" r="0.79" fill="#7CFFCB" opacity="0.28"><animate attributeName="opacity" values="0.28;0.05;0.28" dur="5.2s" begin="-3.4s" repeatCount="indefinite"/></circle>
      <circle cx="891.8" cy="271.9" r="0.94" fill="#7CFFCB" opacity="0.14"><animate attributeName="opacity" values="0.14;0.03;0.14" dur="4.8s" begin="-2.9s" repeatCount="indefinite"/></circle>
      <circle cx="592.3" cy="239.6" r="1.27" fill="#7CFFCB" opacity="0.18"><animate attributeName="opacity" values="0.18;0.03;0.18" dur="4.4s" begin="-3.1s" repeatCount="indefinite"/></circle>
      <circle cx="166.9" cy="88.7" r="1.08" fill="#7CFFCB" opacity="0.42"><animate attributeName="opacity" values="0.42;0.08;0.42" dur="3.0s" begin="-2.6s" repeatCount="indefinite"/></circle>
      <circle cx="274.4" cy="362.9" r="1.26" fill="#7CFFCB" opacity="0.45"><animate attributeName="opacity" values="0.45;0.08;0.45" dur="5.5s" begin="-1.3s" repeatCount="indefinite"/></circle>
      <circle cx="66.8" cy="40.6" r="0.65" fill="#7CFFCB" opacity="0.2"><animate attributeName="opacity" values="0.2;0.04;0.2" dur="4.5s" begin="-3.1s" repeatCount="indefinite"/></circle>
      <circle cx="912.7" cy="204.7" r="1.09" fill="#7CFFCB" opacity="0.32"><animate attributeName="opacity" values="0.32;0.06;0.32" dur="3.3s" begin="-2.3s" repeatCount="indefinite"/></circle>
      <circle cx="919.4" cy="41.0" r="0.97" fill="#7CFFCB" opacity="0.41"><animate attributeName="opacity" values="0.41;0.07;0.41" dur="3.8s" begin="-0.3s" repeatCount="indefinite"/></circle>
      <circle cx="1129.8" cy="136.9" r="1.35" fill="#7CFFCB" opacity="0.45"><animate attributeName="opacity" values="0.45;0.08;0.45" dur="5.3s" begin="-0.5s" repeatCount="indefinite"/></circle>
      <circle cx="1100.6" cy="246.8" r="0.71" fill="#7CFFCB" opacity="0.45"><animate attributeName="opacity" values="0.45;0.08;0.45" dur="3.1s" begin="-1.9s" repeatCount="indefinite"/></circle>
      <circle cx="1157.6" cy="166.9" r="1.06" fill="#7CFFCB" opacity="0.29"><animate attributeName="opacity" values="0.29;0.05;0.29" dur="3.9s" begin="-0.5s" repeatCount="indefinite"/></circle>
      <circle cx="427.5" cy="82.9" r="1.23" fill="#7CFFCB" opacity="0.54"><animate attributeName="opacity" values="0.54;0.1;0.54" dur="2.8s" begin="-0.8s" repeatCount="indefinite"/></circle>
      <circle cx="84.9" cy="403.7" r="0.76" fill="#7CFFCB" opacity="0.18"><animate attributeName="opacity" values="0.18;0.03;0.18" dur="5.4s" begin="-0.9s" repeatCount="indefinite"/></circle>
      <circle cx="663.7" cy="8.5" r="0.82" fill="#7CFFCB" opacity="0.28"><animate attributeName="opacity" values="0.28;0.05;0.28" dur="4.2s" begin="-2.6s" repeatCount="indefinite"/></circle>
      <circle cx="1111.9" cy="234.2" r="0.63" fill="#7CFFCB" opacity="0.21"><animate attributeName="opacity" values="0.21;0.04;0.21" dur="3.6s" begin="-2.9s" repeatCount="indefinite"/></circle></g>
  <g class="screen">
    <circle cx="305" cy="210" r="178" fill="url(#halo)"/>
    <g filter="url(#bloom)">
      <circle cx="305" cy="210" r="152" fill="none" stroke="#02EEAA" stroke-width="2"/>
      <ellipse cx="305" cy="85.4" rx="87.0" ry="17.4" fill="none" stroke="#02EEAA" stroke-width="1.3" stroke-opacity="0.5"/>
      <ellipse cx="305" cy="126.4" rx="126.9" ry="25.4" fill="none" stroke="#02EEAA" stroke-width="1.3" stroke-opacity="0.5"/>
      <ellipse cx="305" cy="167.4" rx="145.9" ry="29.2" fill="none" stroke="#02EEAA" stroke-width="1.3" stroke-opacity="0.5"/>
      <ellipse cx="305" cy="210" rx="152.0" ry="30.4" fill="none" stroke="#02EEAA" stroke-width="1.3" stroke-opacity="0.85"/>
      <ellipse cx="305" cy="252.6" rx="145.9" ry="29.2" fill="none" stroke="#02EEAA" stroke-width="1.3" stroke-opacity="0.5"/>
      <ellipse cx="305" cy="293.6" rx="126.9" ry="25.4" fill="none" stroke="#02EEAA" stroke-width="1.3" stroke-opacity="0.5"/>
      <ellipse cx="305" cy="334.6" rx="87.0" ry="17.4" fill="none" stroke="#02EEAA" stroke-width="1.3" stroke-opacity="0.5"/>
      <ellipse cx="305" cy="210" rx="152" ry="152" fill="none" stroke="#02EEAA" stroke-width="1.5" stroke-dasharray="2 7"><animate attributeName="rx" values="152.0;149.7;142.8;131.6;116.4;97.7;76.0;52.0;26.4;0.0;26.4;52.0;76.0;97.7;116.4;131.6;142.8;149.7;152.0;149.7;142.8;131.6;116.4;97.7;76.0;52.0;26.4;0.0;26.4;52.0;76.0;97.7;116.4;131.6;142.8;149.7;152.0" dur="11.0s" repeatCount="indefinite"/><animate attributeName="stroke-opacity" values="0.82;0.811;0.784;0.74;0.68;0.606;0.52;0.425;0.324;0.22;0.324;0.425;0.52;0.606;0.68;0.74;0.784;0.811;0.82;0.811;0.784;0.74;0.68;0.606;0.52;0.425;0.324;0.22;0.324;0.425;0.52;0.606;0.68;0.74;0.784;0.811;0.82" dur="11.0s" repeatCount="indefinite"/></ellipse>
      <ellipse cx="305" cy="210" rx="152" ry="152" fill="none" stroke="#02EEAA" stroke-width="1.5"><animate attributeName="rx" values="136.9;123.4;106.1;85.6;62.5;37.5;11.4;15.1;41.2;66.0;88.7;108.8;125.6;138.5;147.3;151.6;151.2;146.3;136.9;123.4;106.1;85.6;62.5;37.5;11.4;15.1;41.2;66.0;88.7;108.8;125.6;138.5;147.3;151.6;151.2;146.3;136.9" dur="11.0s" repeatCount="indefinite"/><animate attributeName="stroke-opacity" values="0.761;0.707;0.639;0.558;0.467;0.368;0.265;0.28;0.383;0.48;0.57;0.65;0.716;0.767;0.801;0.818;0.817;0.798;0.761;0.707;0.639;0.558;0.467;0.368;0.265;0.28;0.383;0.48;0.57;0.65;0.716;0.767;0.801;0.818;0.817;0.798;0.761" dur="11.0s" repeatCount="indefinite"/></ellipse>
      <ellipse cx="305" cy="210" rx="152" ry="152" fill="none" stroke="#02EEAA" stroke-width="1.5"><animate attributeName="rx" values="94.8;72.7;48.4;22.7;3.8;30.1;55.5;79.3;100.6;118.8;133.5;144.1;150.3;152.0;149.0;141.5;129.7;114.0;94.8;72.7;48.4;22.7;3.8;30.1;55.5;79.3;100.6;118.8;133.5;144.1;150.3;152.0;149.0;141.5;129.7;114.0;94.8" dur="11.0s" repeatCount="indefinite"/><animate attributeName="stroke-opacity" values="0.594;0.507;0.411;0.309;0.235;0.339;0.439;0.533;0.617;0.689;0.747;0.789;0.813;0.82;0.808;0.779;0.732;0.67;0.594;0.507;0.411;0.309;0.235;0.339;0.439;0.533;0.617;0.689;0.747;0.789;0.813;0.82;0.808;0.779;0.732;0.67;0.594" dur="11.0s" repeatCount="indefinite"/></ellipse>
      <ellipse cx="305" cy="210" rx="152" ry="152" fill="none" stroke="#02EEAA" stroke-width="1.5"><animate attributeName="rx" values="33.8;7.6;18.9;44.8;69.3;91.8;111.4;127.7;140.1;148.2;151.8;150.8;145.2;135.3;121.2;103.4;82.5;59.0;33.8;7.6;18.9;44.8;69.3;91.8;111.4;127.7;140.1;148.2;151.8;150.8;145.2;135.3;121.2;103.4;82.5;59.0;33.8" dur="11.0s" repeatCount="indefinite"/><animate attributeName="stroke-opacity" values="0.354;0.25;0.295;0.397;0.494;0.582;0.66;0.724;0.773;0.805;0.819;0.815;0.793;0.754;0.698;0.628;0.546;0.453;0.354;0.25;0.295;0.397;0.494;0.582;0.66;0.724;0.773;0.805;0.819;0.815;0.793;0.754;0.698;0.628;0.546;0.453;0.354" dur="11.0s" repeatCount="indefinite"/></ellipse>
      <ellipse cx="305" cy="210" rx="152" ry="152" fill="none" stroke="#02EEAA" stroke-width="1.5"><animate attributeName="rx" values="33.8;59.0;82.5;103.4;121.2;135.3;145.2;150.8;151.8;148.2;140.1;127.7;111.4;91.8;69.3;44.8;18.9;7.6;33.8;59.0;82.5;103.4;121.2;135.3;145.2;150.8;151.8;148.2;140.1;127.7;111.4;91.8;69.3;44.8;18.9;7.6;33.8" dur="11.0s" repeatCount="indefinite"/><animate attributeName="stroke-opacity" values="0.354;0.453;0.546;0.628;0.698;0.754;0.793;0.815;0.819;0.805;0.773;0.724;0.66;0.582;0.494;0.397;0.295;0.25;0.354;0.453;0.546;0.628;0.698;0.754;0.793;0.815;0.819;0.805;0.773;0.724;0.66;0.582;0.494;0.397;0.295;0.25;0.354" dur="11.0s" repeatCount="indefinite"/></ellipse>
      <ellipse cx="305" cy="210" rx="152" ry="152" fill="none" stroke="#02EEAA" stroke-width="1.5"><animate attributeName="rx" values="94.8;114.0;129.7;141.5;149.0;152.0;150.3;144.1;133.5;118.8;100.6;79.3;55.5;30.1;3.8;22.7;48.4;72.7;94.8;114.0;129.7;141.5;149.0;152.0;150.3;144.1;133.5;118.8;100.6;79.3;55.5;30.1;3.8;22.7;48.4;72.7;94.8" dur="11.0s" repeatCount="indefinite"/><animate attributeName="stroke-opacity" values="0.594;0.67;0.732;0.779;0.808;0.82;0.813;0.789;0.747;0.689;0.617;0.533;0.439;0.339;0.235;0.309;0.411;0.507;0.594;0.67;0.732;0.779;0.808;0.82;0.813;0.789;0.747;0.689;0.617;0.533;0.439;0.339;0.235;0.309;0.411;0.507;0.594" dur="11.0s" repeatCount="indefinite"/></ellipse>
      <ellipse cx="305" cy="210" rx="152" ry="152" fill="none" stroke="#02EEAA" stroke-width="1.5"><animate attributeName="rx" values="136.9;146.3;151.2;151.6;147.3;138.5;125.6;108.8;88.7;66.0;41.2;15.1;11.4;37.5;62.5;85.6;106.1;123.4;136.9;146.3;151.2;151.6;147.3;138.5;125.6;108.8;88.7;66.0;41.2;15.1;11.4;37.5;62.5;85.6;106.1;123.4;136.9" dur="11.0s" repeatCount="indefinite"/><animate attributeName="stroke-opacity" values="0.761;0.798;0.817;0.818;0.801;0.767;0.716;0.65;0.57;0.48;0.383;0.28;0.265;0.368;0.467;0.558;0.639;0.707;0.761;0.798;0.817;0.818;0.801;0.767;0.716;0.65;0.57;0.48;0.383;0.28;0.265;0.368;0.467;0.558;0.639;0.707;0.761" dur="11.0s" repeatCount="indefinite"/></ellipse>
      <g class="core" filter="url(#soft)"><g fill="#02EEAA"><rect x="231" y="158" width="148" height="15" rx="7"/><path d="M 295 160 L 315 160 L 309 288 L 305 314 L 301 288 Z"/><rect x="280" y="136" width="6" height="26" rx="3"/><rect x="324" y="136" width="6" height="26" rx="3"/><circle cx="283" cy="132" r="8"/><circle cx="327" cy="132" r="8"/></g></g>
      <circle r="5.5" fill="#02EEAA"><animateMotion dur="11s" repeatCount="indefinite" rotate="auto" path="M 153 210 A 152 30.4 0 1 1 457 210 A 152 30.4 0 1 1 153 210 Z"/><animate attributeName="opacity" values="1;1;0.35;0.35;1" keyTimes="0;0.25;0.5;0.75;1" dur="11s" repeatCount="indefinite"/></circle>
    </g>
    
    <g class="wm" filter="url(#bloom)">
      <g class="wm-c" fill="#00c8ff"><g transform="translate(508.4,220) scale(0.197,-0.197)"><path transform="translate(0,0)" d="M360 480H240Q244 464 244 440Q244 417 240 400Q244 384 244 360Q244 337 240 320Q244 304 244 280Q244 257 240 240Q244 224 244 200Q244 177 240 160Q244 144 244 120Q244 97 240 80Q244 64 244 40Q244 17 240 0H160Q156 17 156 40Q156 64 160 80Q156 97 156 120Q156 144 160 160Q156 177 156 200Q156 224 160 240Q156 257 156 280Q156 304 160 320Q156 337 156 360Q156 384 160 400Q156 417 156 440Q156 464 160 480H40Q36 497 36 520Q36 544 40 560H360Q364 544 364 520Q364 497 360 480Z"/><path transform="translate(400,0)" d="M160 240Q164 224 164 200Q164 177 160 160Q164 144 164 120Q164 97 160 80H320Q324 64 324 40Q324 17 320 0H80Q76 17 76 40Q76 64 80 80Q76 97 76 120Q76 144 80 160Q76 177 76 200Q76 224 80 240Q76 257 76 280Q76 304 80 320Q76 337 76 360Q76 384 80 400Q76 417 76 440Q76 464 80 480Q76 497 76 520Q76 544 80 560H320Q324 544 324 520Q324 497 320 480H160Q164 464 164 440Q164 417 160 400Q164 384 164 360Q164 337 160 320H320Q324 304 324 280Q324 257 320 240Z"/><path transform="translate(800,0)" d="M360 80Q364 64 364 40Q364 17 360 0H280Q276 17 276 40Q276 64 280 80H250Q246 97 246 120Q246 144 250 160H220Q216 177 216 200Q216 224 220 240H120Q124 224 124 200Q124 177 120 160Q124 144 124 120Q124 97 120 80Q124 64 124 40Q124 17 120 0H40Q36 17 36 40Q36 64 40 80Q36 97 36 120Q36 144 40 160Q36 177 36 200Q36 224 40 240Q36 257 36 280Q36 304 40 320Q36 337 36 360Q36 384 40 400Q36 417 36 440Q36 464 40 480Q36 497 36 520Q36 544 40 560H320Q324 544 324 520Q324 497 320 480H360Q364 464 364 440Q364 417 360 400H340Q344 384 344 360Q344 337 340 320H280Q284 304 284 280Q284 257 280 240H300Q304 224 304 200Q304 177 300 160H330Q334 144 334 120Q334 97 330 80ZM256 360Q256 384 260 400Q256 417 256 440Q256 464 260 480H120Q124 464 124 440Q124 417 120 400Q124 384 124 360Q124 337 120 320H260Q256 337 256 360Z"/><path transform="translate(1200,0)" d="M360 80Q364 64 364 40Q364 17 360 0H280Q276 17 276 40Q276 64 280 80H250Q246 97 246 120Q246 144 250 160H220Q216 177 216 200Q216 224 220 240H120Q124 224 124 200Q124 177 120 160Q124 144 124 120Q124 97 120 80Q124 64 124 40Q124 17 120 0H40Q36 17 36 40Q36 64 40 80Q36 97 36 120Q36 144 40 160Q36 177 36 200Q36 224 40 240Q36 257 36 280Q36 304 40 320Q36 337 36 360Q36 384 40 400Q36 417 36 440Q36 464 40 480Q36 497 36 520Q36 544 40 560H320Q324 544 324 520Q324 497 320 480H360Q364 464 364 440Q364 417 360 400H340Q344 384 344 360Q344 337 340 320H280Q284 304 284 280Q284 257 280 240H300Q304 224 304 200Q304 177 300 160H330Q334 144 334 120Q334 97 330 80ZM256 360Q256 384 260 400Q256 417 256 440Q256 464 260 480H120Q124 464 124 440Q124 417 120 400Q124 384 124 360Q124 337 120 320H260Q256 337 256 360Z"/><path transform="translate(1600,0)" d="M360 80Q364 64 364 40Q364 17 360 0H280Q276 17 276 40Q276 64 280 80Q276 97 276 120Q276 144 280 160H120Q124 144 124 120Q124 97 120 80Q124 64 124 40Q124 17 120 0H40Q36 17 36 40Q36 64 40 80Q36 97 36 120Q36 144 40 160H70Q66 177 66 200Q66 224 70 240Q66 257 66 280Q66 304 70 320H90Q86 337 86 360Q86 384 90 400H120Q116 417 116 440Q116 464 120 480H140Q136 497 136 520Q136 544 140 560H260Q264 544 264 520Q264 497 260 480H280Q284 464 284 440Q284 417 280 400H310Q314 384 314 360Q314 337 310 320H330Q334 304 334 280Q334 257 330 240Q334 224 334 200Q334 177 330 160H360Q364 144 364 120Q364 97 360 80ZM246 280Q246 304 250 320H230Q226 337 226 360Q226 384 230 400H170Q174 384 174 360Q174 337 170 320H150Q154 304 154 280Q154 257 150 240H250Q246 257 246 280Z"/><path transform="translate(2000,0)" d="M360 320H320Q324 304 324 280Q324 257 320 240H360Q364 224 364 200Q364 177 360 160Q364 144 364 120Q364 97 360 80H320Q324 64 324 40Q324 17 320 0H40Q36 17 36 40Q36 64 40 80Q36 97 36 120Q36 144 40 160Q36 177 36 200Q36 224 40 240Q36 257 36 280Q36 304 40 320Q36 337 36 360Q36 384 40 400Q36 417 36 440Q36 464 40 480Q36 497 36 520Q36 544 40 560H320Q324 544 324 520Q324 497 320 480H360Q364 464 364 440Q364 417 360 400Q364 384 364 360Q364 337 360 320ZM276 360Q276 384 280 400Q276 417 276 440Q276 464 280 480H120Q124 464 124 440Q124 417 120 400Q124 384 124 360Q124 337 120 320H280Q276 337 276 360ZM276 200Q276 224 280 240H120Q124 224 124 200Q124 177 120 160Q124 144 124 120Q124 97 120 80H280Q276 97 276 120Q276 144 280 160Q276 177 276 200Z"/><path transform="translate(2400,0)" d="M360 480Q364 464 364 440Q364 417 360 400H320Q324 384 324 360Q324 337 320 320H280Q284 304 284 280Q284 257 280 240H240Q244 224 244 200Q244 177 240 160Q244 144 244 120Q244 97 240 80Q244 64 244 40Q244 17 240 0H160Q156 17 156 40Q156 64 160 80Q156 97 156 120Q156 144 160 160Q156 177 156 200Q156 224 160 240H120Q116 257 116 280Q116 304 120 320H80Q76 337 76 360Q76 384 80 400H40Q36 417 36 440Q36 464 40 480Q36 497 36 520Q36 544 40 560H120Q124 544 124 520Q124 497 120 480Q124 464 124 440Q124 417 120 400H160Q164 384 164 360Q164 337 160 320H240Q236 337 236 360Q236 384 240 400H280Q276 417 276 440Q276 464 280 480Q276 497 276 520Q276 544 280 560H360Q364 544 364 520Q364 497 360 480Z"/><path transform="translate(2800,0)" d="M360 480H240Q244 464 244 440Q244 417 240 400Q244 384 244 360Q244 337 240 320Q244 304 244 280Q244 257 240 240Q244 224 244 200Q244 177 240 160Q244 144 244 120Q244 97 240 80Q244 64 244 40Q244 17 240 0H160Q156 17 156 40Q156 64 160 80Q156 97 156 120Q156 144 160 160Q156 177 156 200Q156 224 160 240Q156 257 156 280Q156 304 160 320Q156 337 156 360Q156 384 160 400Q156 417 156 440Q156 464 160 480H40Q36 497 36 520Q36 544 40 560H360Q364 544 364 520Q364 497 360 480Z"/><path transform="translate(3200,0)" d="M160 240Q164 224 164 200Q164 177 160 160Q164 144 164 120Q164 97 160 80H320Q324 64 324 40Q324 17 320 0H80Q76 17 76 40Q76 64 80 80Q76 97 76 120Q76 144 80 160Q76 177 76 200Q76 224 80 240Q76 257 76 280Q76 304 80 320Q76 337 76 360Q76 384 80 400Q76 417 76 440Q76 464 80 480Q76 497 76 520Q76 544 80 560H320Q324 544 324 520Q324 497 320 480H160Q164 464 164 440Q164 417 160 400Q164 384 164 360Q164 337 160 320H320Q324 304 324 280Q324 257 320 240Z"/></g></g>
      <g class="wm-r" fill="#ff2e6a"><g transform="translate(502.4,220) scale(0.197,-0.197)"><path transform="translate(0,0)" d="M360 480H240Q244 464 244 440Q244 417 240 400Q244 384 244 360Q244 337 240 320Q244 304 244 280Q244 257 240 240Q244 224 244 200Q244 177 240 160Q244 144 244 120Q244 97 240 80Q244 64 244 40Q244 17 240 0H160Q156 17 156 40Q156 64 160 80Q156 97 156 120Q156 144 160 160Q156 177 156 200Q156 224 160 240Q156 257 156 280Q156 304 160 320Q156 337 156 360Q156 384 160 400Q156 417 156 440Q156 464 160 480H40Q36 497 36 520Q36 544 40 560H360Q364 544 364 520Q364 497 360 480Z"/><path transform="translate(400,0)" d="M160 240Q164 224 164 200Q164 177 160 160Q164 144 164 120Q164 97 160 80H320Q324 64 324 40Q324 17 320 0H80Q76 17 76 40Q76 64 80 80Q76 97 76 120Q76 144 80 160Q76 177 76 200Q76 224 80 240Q76 257 76 280Q76 304 80 320Q76 337 76 360Q76 384 80 400Q76 417 76 440Q76 464 80 480Q76 497 76 520Q76 544 80 560H320Q324 544 324 520Q324 497 320 480H160Q164 464 164 440Q164 417 160 400Q164 384 164 360Q164 337 160 320H320Q324 304 324 280Q324 257 320 240Z"/><path transform="translate(800,0)" d="M360 80Q364 64 364 40Q364 17 360 0H280Q276 17 276 40Q276 64 280 80H250Q246 97 246 120Q246 144 250 160H220Q216 177 216 200Q216 224 220 240H120Q124 224 124 200Q124 177 120 160Q124 144 124 120Q124 97 120 80Q124 64 124 40Q124 17 120 0H40Q36 17 36 40Q36 64 40 80Q36 97 36 120Q36 144 40 160Q36 177 36 200Q36 224 40 240Q36 257 36 280Q36 304 40 320Q36 337 36 360Q36 384 40 400Q36 417 36 440Q36 464 40 480Q36 497 36 520Q36 544 40 560H320Q324 544 324 520Q324 497 320 480H360Q364 464 364 440Q364 417 360 400H340Q344 384 344 360Q344 337 340 320H280Q284 304 284 280Q284 257 280 240H300Q304 224 304 200Q304 177 300 160H330Q334 144 334 120Q334 97 330 80ZM256 360Q256 384 260 400Q256 417 256 440Q256 464 260 480H120Q124 464 124 440Q124 417 120 400Q124 384 124 360Q124 337 120 320H260Q256 337 256 360Z"/><path transform="translate(1200,0)" d="M360 80Q364 64 364 40Q364 17 360 0H280Q276 17 276 40Q276 64 280 80H250Q246 97 246 120Q246 144 250 160H220Q216 177 216 200Q216 224 220 240H120Q124 224 124 200Q124 177 120 160Q124 144 124 120Q124 97 120 80Q124 64 124 40Q124 17 120 0H40Q36 17 36 40Q36 64 40 80Q36 97 36 120Q36 144 40 160Q36 177 36 200Q36 224 40 240Q36 257 36 280Q36 304 40 320Q36 337 36 360Q36 384 40 400Q36 417 36 440Q36 464 40 480Q36 497 36 520Q36 544 40 560H320Q324 544 324 520Q324 497 320 480H360Q364 464 364 440Q364 417 360 400H340Q344 384 344 360Q344 337 340 320H280Q284 304 284 280Q284 257 280 240H300Q304 224 304 200Q304 177 300 160H330Q334 144 334 120Q334 97 330 80ZM256 360Q256 384 260 400Q256 417 256 440Q256 464 260 480H120Q124 464 124 440Q124 417 120 400Q124 384 124 360Q124 337 120 320H260Q256 337 256 360Z"/><path transform="translate(1600,0)" d="M360 80Q364 64 364 40Q364 17 360 0H280Q276 17 276 40Q276 64 280 80Q276 97 276 120Q276 144 280 160H120Q124 144 124 120Q124 97 120 80Q124 64 124 40Q124 17 120 0H40Q36 17 36 40Q36 64 40 80Q36 97 36 120Q36 144 40 160H70Q66 177 66 200Q66 224 70 240Q66 257 66 280Q66 304 70 320H90Q86 337 86 360Q86 384 90 400H120Q116 417 116 440Q116 464 120 480H140Q136 497 136 520Q136 544 140 560H260Q264 544 264 520Q264 497 260 480H280Q284 464 284 440Q284 417 280 400H310Q314 384 314 360Q314 337 310 320H330Q334 304 334 280Q334 257 330 240Q334 224 334 200Q334 177 330 160H360Q364 144 364 120Q364 97 360 80ZM246 280Q246 304 250 320H230Q226 337 226 360Q226 384 230 400H170Q174 384 174 360Q174 337 170 320H150Q154 304 154 280Q154 257 150 240H250Q246 257 246 280Z"/><path transform="translate(2000,0)" d="M360 320H320Q324 304 324 280Q324 257 320 240H360Q364 224 364 200Q364 177 360 160Q364 144 364 120Q364 97 360 80H320Q324 64 324 40Q324 17 320 0H40Q36 17 36 40Q36 64 40 80Q36 97 36 120Q36 144 40 160Q36 177 36 200Q36 224 40 240Q36 257 36 280Q36 304 40 320Q36 337 36 360Q36 384 40 400Q36 417 36 440Q36 464 40 480Q36 497 36 520Q36 544 40 560H320Q324 544 324 520Q324 497 320 480H360Q364 464 364 440Q364 417 360 400Q364 384 364 360Q364 337 360 320ZM276 360Q276 384 280 400Q276 417 276 440Q276 464 280 480H120Q124 464 124 440Q124 417 120 400Q124 384 124 360Q124 337 120 320H280Q276 337 276 360ZM276 200Q276 224 280 240H120Q124 224 124 200Q124 177 120 160Q124 144 124 120Q124 97 120 80H280Q276 97 276 120Q276 144 280 160Q276 177 276 200Z"/><path transform="translate(2400,0)" d="M360 480Q364 464 364 440Q364 417 360 400H320Q324 384 324 360Q324 337 320 320H280Q284 304 284 280Q284 257 280 240H240Q244 224 244 200Q244 177 240 160Q244 144 244 120Q244 97 240 80Q244 64 244 40Q244 17 240 0H160Q156 17 156 40Q156 64 160 80Q156 97 156 120Q156 144 160 160Q156 177 156 200Q156 224 160 240H120Q116 257 116 280Q116 304 120 320H80Q76 337 76 360Q76 384 80 400H40Q36 417 36 440Q36 464 40 480Q36 497 36 520Q36 544 40 560H120Q124 544 124 520Q124 497 120 480Q124 464 124 440Q124 417 120 400H160Q164 384 164 360Q164 337 160 320H240Q236 337 236 360Q236 384 240 400H280Q276 417 276 440Q276 464 280 480Q276 497 276 520Q276 544 280 560H360Q364 544 364 520Q364 497 360 480Z"/><path transform="translate(2800,0)" d="M360 480H240Q244 464 244 440Q244 417 240 400Q244 384 244 360Q244 337 240 320Q244 304 244 280Q244 257 240 240Q244 224 244 200Q244 177 240 160Q244 144 244 120Q244 97 240 80Q244 64 244 40Q244 17 240 0H160Q156 17 156 40Q156 64 160 80Q156 97 156 120Q156 144 160 160Q156 177 156 200Q156 224 160 240Q156 257 156 280Q156 304 160 320Q156 337 156 360Q156 384 160 400Q156 417 156 440Q156 464 160 480H40Q36 497 36 520Q36 544 40 560H360Q364 544 364 520Q364 497 360 480Z"/><path transform="translate(3200,0)" d="M160 240Q164 224 164 200Q164 177 160 160Q164 144 164 120Q164 97 160 80H320Q324 64 324 40Q324 17 320 0H80Q76 17 76 40Q76 64 80 80Q76 97 76 120Q76 144 80 160Q76 177 76 200Q76 224 80 240Q76 257 76 280Q76 304 80 320Q76 337 76 360Q76 384 80 400Q76 417 76 440Q76 464 80 480Q76 497 76 520Q76 544 80 560H320Q324 544 324 520Q324 497 320 480H160Q164 464 164 440Q164 417 160 400Q164 384 164 360Q164 337 160 320H320Q324 304 324 280Q324 257 320 240Z"/></g></g>
      <g transform="translate(505.4,220) scale(0.197,-0.197)" fill="#02EEAA"><path transform="translate(0,0)" d="M360 480H240Q244 464 244 440Q244 417 240 400Q244 384 244 360Q244 337 240 320Q244 304 244 280Q244 257 240 240Q244 224 244 200Q244 177 240 160Q244 144 244 120Q244 97 240 80Q244 64 244 40Q244 17 240 0H160Q156 17 156 40Q156 64 160 80Q156 97 156 120Q156 144 160 160Q156 177 156 200Q156 224 160 240Q156 257 156 280Q156 304 160 320Q156 337 156 360Q156 384 160 400Q156 417 156 440Q156 464 160 480H40Q36 497 36 520Q36 544 40 560H360Q364 544 364 520Q364 497 360 480Z"/><path transform="translate(400,0)" d="M160 240Q164 224 164 200Q164 177 160 160Q164 144 164 120Q164 97 160 80H320Q324 64 324 40Q324 17 320 0H80Q76 17 76 40Q76 64 80 80Q76 97 76 120Q76 144 80 160Q76 177 76 200Q76 224 80 240Q76 257 76 280Q76 304 80 320Q76 337 76 360Q76 384 80 400Q76 417 76 440Q76 464 80 480Q76 497 76 520Q76 544 80 560H320Q324 544 324 520Q324 497 320 480H160Q164 464 164 440Q164 417 160 400Q164 384 164 360Q164 337 160 320H320Q324 304 324 280Q324 257 320 240Z"/><path transform="translate(800,0)" d="M360 80Q364 64 364 40Q364 17 360 0H280Q276 17 276 40Q276 64 280 80H250Q246 97 246 120Q246 144 250 160H220Q216 177 216 200Q216 224 220 240H120Q124 224 124 200Q124 177 120 160Q124 144 124 120Q124 97 120 80Q124 64 124 40Q124 17 120 0H40Q36 17 36 40Q36 64 40 80Q36 97 36 120Q36 144 40 160Q36 177 36 200Q36 224 40 240Q36 257 36 280Q36 304 40 320Q36 337 36 360Q36 384 40 400Q36 417 36 440Q36 464 40 480Q36 497 36 520Q36 544 40 560H320Q324 544 324 520Q324 497 320 480H360Q364 464 364 440Q364 417 360 400H340Q344 384 344 360Q344 337 340 320H280Q284 304 284 280Q284 257 280 240H300Q304 224 304 200Q304 177 300 160H330Q334 144 334 120Q334 97 330 80ZM256 360Q256 384 260 400Q256 417 256 440Q256 464 260 480H120Q124 464 124 440Q124 417 120 400Q124 384 124 360Q124 337 120 320H260Q256 337 256 360Z"/><path transform="translate(1200,0)" d="M360 80Q364 64 364 40Q364 17 360 0H280Q276 17 276 40Q276 64 280 80H250Q246 97 246 120Q246 144 250 160H220Q216 177 216 200Q216 224 220 240H120Q124 224 124 200Q124 177 120 160Q124 144 124 120Q124 97 120 80Q124 64 124 40Q124 17 120 0H40Q36 17 36 40Q36 64 40 80Q36 97 36 120Q36 144 40 160Q36 177 36 200Q36 224 40 240Q36 257 36 280Q36 304 40 320Q36 337 36 360Q36 384 40 400Q36 417 36 440Q36 464 40 480Q36 497 36 520Q36 544 40 560H320Q324 544 324 520Q324 497 320 480H360Q364 464 364 440Q364 417 360 400H340Q344 384 344 360Q344 337 340 320H280Q284 304 284 280Q284 257 280 240H300Q304 224 304 200Q304 177 300 160H330Q334 144 334 120Q334 97 330 80ZM256 360Q256 384 260 400Q256 417 256 440Q256 464 260 480H120Q124 464 124 440Q124 417 120 400Q124 384 124 360Q124 337 120 320H260Q256 337 256 360Z"/><path transform="translate(1600,0)" d="M360 80Q364 64 364 40Q364 17 360 0H280Q276 17 276 40Q276 64 280 80Q276 97 276 120Q276 144 280 160H120Q124 144 124 120Q124 97 120 80Q124 64 124 40Q124 17 120 0H40Q36 17 36 40Q36 64 40 80Q36 97 36 120Q36 144 40 160H70Q66 177 66 200Q66 224 70 240Q66 257 66 280Q66 304 70 320H90Q86 337 86 360Q86 384 90 400H120Q116 417 116 440Q116 464 120 480H140Q136 497 136 520Q136 544 140 560H260Q264 544 264 520Q264 497 260 480H280Q284 464 284 440Q284 417 280 400H310Q314 384 314 360Q314 337 310 320H330Q334 304 334 280Q334 257 330 240Q334 224 334 200Q334 177 330 160H360Q364 144 364 120Q364 97 360 80ZM246 280Q246 304 250 320H230Q226 337 226 360Q226 384 230 400H170Q174 384 174 360Q174 337 170 320H150Q154 304 154 280Q154 257 150 240H250Q246 257 246 280Z"/><path transform="translate(2000,0)" d="M360 320H320Q324 304 324 280Q324 257 320 240H360Q364 224 364 200Q364 177 360 160Q364 144 364 120Q364 97 360 80H320Q324 64 324 40Q324 17 320 0H40Q36 17 36 40Q36 64 40 80Q36 97 36 120Q36 144 40 160Q36 177 36 200Q36 224 40 240Q36 257 36 280Q36 304 40 320Q36 337 36 360Q36 384 40 400Q36 417 36 440Q36 464 40 480Q36 497 36 520Q36 544 40 560H320Q324 544 324 520Q324 497 320 480H360Q364 464 364 440Q364 417 360 400Q364 384 364 360Q364 337 360 320ZM276 360Q276 384 280 400Q276 417 276 440Q276 464 280 480H120Q124 464 124 440Q124 417 120 400Q124 384 124 360Q124 337 120 320H280Q276 337 276 360ZM276 200Q276 224 280 240H120Q124 224 124 200Q124 177 120 160Q124 144 124 120Q124 97 120 80H280Q276 97 276 120Q276 144 280 160Q276 177 276 200Z"/><path transform="translate(2400,0)" d="M360 480Q364 464 364 440Q364 417 360 400H320Q324 384 324 360Q324 337 320 320H280Q284 304 284 280Q284 257 280 240H240Q244 224 244 200Q244 177 240 160Q244 144 244 120Q244 97 240 80Q244 64 244 40Q244 17 240 0H160Q156 17 156 40Q156 64 160 80Q156 97 156 120Q156 144 160 160Q156 177 156 200Q156 224 160 240H120Q116 257 116 280Q116 304 120 320H80Q76 337 76 360Q76 384 80 400H40Q36 417 36 440Q36 464 40 480Q36 497 36 520Q36 544 40 560H120Q124 544 124 520Q124 497 120 480Q124 464 124 440Q124 417 120 400H160Q164 384 164 360Q164 337 160 320H240Q236 337 236 360Q236 384 240 400H280Q276 417 276 440Q276 464 280 480Q276 497 276 520Q276 544 280 560H360Q364 544 364 520Q364 497 360 480Z"/><path transform="translate(2800,0)" d="M360 480H240Q244 464 244 440Q244 417 240 400Q244 384 244 360Q244 337 240 320Q244 304 244 280Q244 257 240 240Q244 224 244 200Q244 177 240 160Q244 144 244 120Q244 97 240 80Q244 64 244 40Q244 17 240 0H160Q156 17 156 40Q156 64 160 80Q156 97 156 120Q156 144 160 160Q156 177 156 200Q156 224 160 240Q156 257 156 280Q156 304 160 320Q156 337 156 360Q156 384 160 400Q156 417 156 440Q156 464 160 480H40Q36 497 36 520Q36 544 40 560H360Q364 544 364 520Q364 497 360 480Z"/><path transform="translate(3200,0)" d="M160 240Q164 224 164 200Q164 177 160 160Q164 144 164 120Q164 97 160 80H320Q324 64 324 40Q324 17 320 0H80Q76 17 76 40Q76 64 80 80Q76 97 76 120Q76 144 80 160Q76 177 76 200Q76 224 80 240Q76 257 76 280Q76 304 80 320Q76 337 76 360Q76 384 80 400Q76 417 76 440Q76 464 80 480Q76 497 76 520Q76 544 80 560H320Q324 544 324 520Q324 497 320 480H160Q164 464 164 440Q164 417 160 400Q164 384 164 360Q164 337 160 320H320Q324 304 324 280Q324 257 320 240Z"/></g></g>
    <line class="rule" x1="517.4" y1="244" x2="1202.4" y2="244" stroke="url(#rule)" stroke-width="2.5" filter="url(#soft)"/>
    <g filter="url(#soft)"><text x="860" y="278" text-anchor="middle" fill="#9BF5B8" font-size="21" letter-spacing="2">technologist &#183; builder &#183; jack of all trades</text></g>
    <text x="40" y="394" fill="#2f6f4e" font-size="13" letter-spacing="3">DAY 0353</text><text x="1240" y="394" text-anchor="end" fill="#2f6f4e" font-size="13" letter-spacing="3">2026.06.30</text>
    <rect class="sweep" x="0" y="0" width="1280" height="26" fill="url(#sweepg)"/>
  </g>
  <rect width="1280" height="420" fill="url(#scan)"/><rect width="1280" height="420" fill="url(#vig)"/>
</svg>
